<svg id="visual" viewBox="0 0 900 300" width="900" height="300" xmlns="http://www.w3.org/2000/svg" xmlns:xlink="http://www.w3.org/1999/xlink" version="1.1"><rect x="0" y="0" width="900" height="300" fill="#202731"></rect><path d="M0 106L11.5 106.7C23 107.3 46 108.7 69 107.5C92 106.3 115 102.7 138.2 105.5C161.3 108.3 184.7 117.7 207.8 118.8C231 120 254 113 277 113.7C300 114.3 323 122.7 346 127.7C369 132.7 392 134.3 415.2 135.7C438.3 137 461.7 138 484.8 137C508 136 531 133 554 129.7C577 126.3 600 122.7 623 118.5C646 114.3 669 109.7 692.2 106.3C715.3 103 738.7 101 761.8 104.7C785 108.3 808 117.7 831 118C854 118.3 877 109.7 888.5 105.3L900 101L900 0L888.5 0C877 0 854 0 831 0C808 0 785 0 761.8 0C738.7 0 715.3 0 692.2 0C669 0 646 0 623 0C600 0 577 0 554 0C531 0 508 0 484.8 0C461.7 0 438.3 0 415.2 0C392 0 369 0 346 0C323 0 300 0 277 0C254 0 231 0 207.8 0C184.7 0 161.3 0 138.2 0C115 0 92 0 69 0C46 0 23 0 11.5 0L0 0Z" fill="#7f807f"></path><path d="M0 89L11.5 87.8C23 86.7 46 84.3 69 87.7C92 91 115 100 138.2 101.3C161.3 102.7 184.7 96.3 207.8 95C231 93.7 254 97.3 277 97.2C300 97 323 93 346 93.5C369 94 392 99 415.2 97.3C438.3 95.7 461.7 87.3 484.8 86C508 84.7 531 90.3 554 91.8C577 93.3 600 90.7 623 88.5C646 86.3 669 84.7 692.2 84.3C715.3 84 738.7 85 761.8 84.7C785 84.3 808 82.7 831 85.2C854 87.7 877 94.3 888.5 97.7L900 101L900 0L888.5 0C877 0 854 0 831 0C808 0 785 0 761.8 0C738.7 0 715.3 0 692.2 0C669 0 646 0 623 0C600 0 577 0 554 0C531 0 508 0 484.8 0C461.7 0 438.3 0 415.2 0C392 0 369 0 346 0C323 0 300 0 277 0C254 0 231 0 207.8 0C184.7 0 161.3 0 138.2 0C115 0 92 0 69 0C46 0 23 0 11.5 0L0 0Z" fill="#969796"></path><path d="M0 88L11.5 82.5C23 77 46 66 69 60.2C92 54.3 115 53.7 138.2 59.3C161.3 65 184.7 77 207.8 77.2C231 77.3 254 65.7 277 59.8C300 54 323 54 346 56.3C369 58.7 392 63.3 415.2 64.5C438.3 65.7 461.7 63.3 484.8 61.5C508 59.7 531 58.3 554 60.2C577 62 600 67 623 66.8C646 66.7 669 61.3 692.2 63.5C715.3 65.7 738.7 75.3 761.8 80.5C785 85.7 808 86.3 831 83.8C854 81.3 877 75.7 888.5 72.8L900 70L900 0L888.5 0C877 0 854 0 831 0C808 0 785 0 761.8 0C738.7 0 715.3 0 692.2 0C669 0 646 0 623 0C600 0 577 0 554 0C531 0 508 0 484.8 0C461.7 0 438.3 0 415.2 0C392 0 369 0 346 0C323 0 300 0 277 0C254 0 231 0 207.8 0C184.7 0 161.3 0 138.2 0C115 0 92 0 69 0C46 0 23 0 11.5 0L0 0Z" fill="#aeaeae"></path><path d="M0 45L11.5 44.7C23 44.3 46 43.7 69 42C92 40.3 115 37.7 138.2 37.7C161.3 37.7 184.7 40.3 207.8 44.5C231 48.7 254 54.3 277 52.3C300 50.3 323 40.7 346 39C369 37.3 392 43.7 415.2 43.7C438.3 43.7 461.7 37.3 484.8 37.5C508 37.7 531 44.3 554 48.5C577 52.7 600 54.3 623 54.5C646 54.7 669 53.3 692.2 53.3C715.3 53.3 738.7 54.7 761.8 55.2C785 55.7 808 55.3 831 52.7C854 50 877 45 888.5 42.5L900 40L900 0L888.5 0C877 0 854 0 831 0C808 0 785 0 761.8 0C738.7 0 715.3 0 692.2 0C669 0 646 0 623 0C600 0 577 0 554 0C531 0 508 0 484.8 0C461.7 0 438.3 0 415.2 0C392 0 369 0 346 0C323 0 300 0 277 0C254 0 231 0 207.8 0C184.7 0 161.3 0 138.2 0C115 0 92 0 69 0C46 0 23 0 11.5 0L0 0Z" fill="#c6c6c6"></path><path d="M0 11L11.5 14C23 17 46 23 69 24.7C92 26.3 115 23.7 138.2 25.5C161.3 27.3 184.7 33.7 207.8 34.5C231 35.3 254 30.7 277 29.2C300 27.7 323 29.3 346 29.7C369 30 392 29 415.2 25C438.3 21 461.7 14 484.8 11C508 8 531 9 554 13.2C577 17.3 600 24.7 623 28C646 31.3 669 30.7 692.2 28.7C715.3 26.7 738.7 23.3 761.8 25.2C785 27 808 34 831 32.5C854 31 877 21 888.5 16L900 11L900 0L888.5 0C877 0 854 0 831 0C808 0 785 0 761.8 0C738.7 0 715.3 0 692.2 0C669 0 646 0 623 0C600 0 577 0 554 0C531 0 508 0 484.8 0C461.7 0 438.3 0 415.2 0C392 0 369 0 346 0C323 0 300 0 277 0C254 0 231 0 207.8 0C184.7 0 161.3 0 138.2 0C115 0 92 0 69 0C46 0 23 0 11.5 0L0 0Z" fill="#dfdfdf"></path></svg>