<svg id="visual" viewBox="0 0 960 300" width="960" height="300" xmlns="http://www.w3.org/2000/svg" xmlns:xlink="http://www.w3.org/1999/xlink" version="1.1"><rect x="0" y="0" width="960" height="300" fill="#f7770f"></rect><path d="M0 166L12.3 166.2C24.7 166.3 49.3 166.7 74 167.7C98.7 168.7 123.3 170.3 148 169.7C172.7 169 197.3 166 221.8 164.7C246.3 163.3 270.7 163.7 295.2 169C319.7 174.3 344.3 184.7 369 186.8C393.7 189 418.3 183 443 177.3C467.7 171.7 492.3 166.3 517 167.3C541.7 168.3 566.3 175.7 591 180.3C615.7 185 640.3 187 664.8 186.7C689.3 186.3 713.7 183.7 738.2 181.2C762.7 178.7 787.3 176.3 812 175.2C836.7 174 861.3 174 886 172.3C910.7 170.7 935.3 167.3 947.7 165.7L960 164L960 301L947.7 301C935.3 301 910.7 301 886 301C861.3 301 836.7 301 812 301C787.3 301 762.7 301 738.2 301C713.7 301 689.3 301 664.8 301C640.3 301 615.7 301 591 301C566.3 301 541.7 301 517 301C492.3 301 467.7 301 443 301C418.3 301 393.7 301 369 301C344.3 301 319.7 301 295.2 301C270.7 301 246.3 301 221.8 301C197.3 301 172.7 301 148 301C123.3 301 98.7 301 74 301C49.3 301 24.7 301 12.3 301L0 301Z" fill="#fcaf3c"></path><path d="M0 196L12.3 194.5C24.7 193 49.3 190 74 188.3C98.7 186.7 123.3 186.3 148 189.8C172.7 193.3 197.3 200.7 221.8 203.3C246.3 206 270.7 204 295.2 202.5C319.7 201 344.3 200 369 199.5C393.7 199 418.3 199 443 202.3C467.7 205.7 492.3 212.3 517 215.7C541.7 219 566.3 219 591 218.5C615.7 218 640.3 217 664.8 213.3C689.3 209.7 713.7 203.3 738.2 198.7C762.7 194 787.3 191 812 188.7C836.7 186.3 861.3 184.7 886 188.8C910.7 193 935.3 203 947.7 208L960 213L960 301L947.7 301C935.3 301 910.7 301 886 301C861.3 301 836.7 301 812 301C787.3 301 762.7 301 738.2 301C713.7 301 689.3 301 664.8 301C640.3 301 615.7 301 591 301C566.3 301 541.7 301 517 301C492.3 301 467.7 301 443 301C418.3 301 393.7 301 369 301C344.3 301 319.7 301 295.2 301C270.7 301 246.3 301 221.8 301C197.3 301 172.7 301 148 301C123.3 301 98.7 301 74 301C49.3 301 24.7 301 12.3 301L0 301Z" fill="#fc8a40"></path><path d="M0 228L12.3 230.3C24.7 232.7 49.3 237.3 74 238.5C98.7 239.7 123.3 237.3 148 233.8C172.7 230.3 197.3 225.7 221.8 223.7C246.3 221.7 270.7 222.3 295.2 223.2C319.7 224 344.3 225 369 225.7C393.7 226.3 418.3 226.7 443 227.8C467.7 229 492.3 231 517 234.2C541.7 237.3 566.3 241.7 591 237.3C615.7 233 640.3 220 664.8 218.2C689.3 216.3 713.7 225.7 738.2 227C762.7 228.3 787.3 221.7 812 218.3C836.7 215 861.3 215 886 220C910.7 225 935.3 235 947.7 240L960 245L960 301L947.7 301C935.3 301 910.7 301 886 301C861.3 301 836.7 301 812 301C787.3 301 762.7 301 738.2 301C713.7 301 689.3 301 664.8 301C640.3 301 615.7 301 591 301C566.3 301 541.7 301 517 301C492.3 301 467.7 301 443 301C418.3 301 393.7 301 369 301C344.3 301 319.7 301 295.2 301C270.7 301 246.3 301 221.8 301C197.3 301 172.7 301 148 301C123.3 301 98.7 301 74 301C49.3 301 24.7 301 12.3 301L0 301Z" fill="#f3664c"></path><path d="M0 232L12.3 237.2C24.7 242.3 49.3 252.7 74 257.8C98.7 263 123.3 263 148 263C172.7 263 197.3 263 221.8 260.8C246.3 258.7 270.7 254.3 295.2 251.5C319.7 248.7 344.3 247.3 369 244.3C393.7 241.3 418.3 236.7 443 237C467.7 237.3 492.3 242.7 517 245.3C541.7 248 566.3 248 591 246.7C615.7 245.3 640.3 242.7 664.8 245.2C689.3 247.7 713.7 255.3 738.2 254.5C762.7 253.7 787.3 244.3 812 243.8C836.7 243.3 861.3 251.7 886 257C910.7 262.3 935.3 264.7 947.7 265.8L960 267L960 301L947.7 301C935.3 301 910.7 301 886 301C861.3 301 836.7 301 812 301C787.3 301 762.7 301 738.2 301C713.7 301 689.3 301 664.8 301C640.3 301 615.7 301 591 301C566.3 301 541.7 301 517 301C492.3 301 467.7 301 443 301C418.3 301 393.7 301 369 301C344.3 301 319.7 301 295.2 301C270.7 301 246.3 301 221.8 301C197.3 301 172.7 301 148 301C123.3 301 98.7 301 74 301C49.3 301 24.7 301 12.3 301L0 301Z" fill="#e1435a"></path><path d="M0 272L12.3 270.3C24.7 268.7 49.3 265.3 74 262.8C98.7 260.3 123.3 258.7 148 260C172.7 261.3 197.3 265.7 221.8 267.7C246.3 269.7 270.7 269.3 295.2 271.7C319.7 274 344.3 279 369 280.8C393.7 282.7 418.3 281.3 443 280C467.7 278.7 492.3 277.3 517 276.5C541.7 275.7 566.3 275.3 591 275.2C615.7 275 640.3 275 664.8 277.2C689.3 279.3 713.7 283.7 738.2 280.7C762.7 277.7 787.3 267.3 812 267.8C836.7 268.3 861.3 279.7 886 283C910.7 286.3 935.3 281.7 947.7 279.3L960 277L960 301L947.7 301C935.3 301 910.7 301 886 301C861.3 301 836.7 301 812 301C787.3 301 762.7 301 738.2 301C713.7 301 689.3 301 664.8 301C640.3 301 615.7 301 591 301C566.3 301 541.7 301 517 301C492.3 301 467.7 301 443 301C418.3 301 393.7 301 369 301C344.3 301 319.7 301 295.2 301C270.7 301 246.3 301 221.8 301C197.3 301 172.7 301 148 301C123.3 301 98.7 301 74 301C49.3 301 24.7 301 12.3 301L0 301Z" fill="#c62368"></path></svg>