<svg version="1.2" xmlns="http://www.w3.org/2000/svg" viewBox="0 0 900 63" width="900" height="63">
	<title>layer3-svg</title>
	<style>
		.s0 { fill: #202731 } 
		.s1 { fill: #a8a89e } 
		.s2 { fill: #a09e94 } 
		.s3 { fill: #98958a } 
		.s4 { fill: #908b80 } 
		.s5 { fill: #888277 } 
	</style>
	<path id="Layer" class="s0" d="m0 0h900v100h-900z"/>
	<path id="Layer" class="s1" d="m0 35l11.5 0.2c11.5 0.1 34.5 0.5 57.5 0 23-0.5 46-1.9 69.2-0.9 23.1 1 46.5 4.4 69.6 4.9 23.2 0.5 46.2-1.9 69.2-1.7 23 0.2 46 2.8 69 4.5 23 1.7 46 2.3 69.2 2.8 23.1 0.5 46.5 0.9 69.6 0.5 23.2-0.3 46.2-1.3 69.2-2.5 23-1.1 46-2.5 69-4 23-1.5 46-3.1 69.2-4.3 23.1-1.2 46.5-1.8 69.6-0.5 23.2 1.3 46.2 4.7 69.2 4.8 23 0.2 46-2.8 57.5-4.3l11.5-1.5v-33h-11.5c-11.5 0-34.5 0-57.5 0-23 0-46 0-69.2 0-23.1 0-46.5 0-69.6 0-23.2 0-46.2 0-69.2 0q-34.5 0-69 0c-23 0-46 0-69.2 0-23.1 0-46.5 0-69.6 0-23.2 0-46.2 0-69.2 0q-34.5 0-69 0c-23 0-46 0-69.2 0-23.1 0-46.5 0-69.6 0-23.2 0-46.2 0-69.2 0-23 0-46 0-57.5 0h-11.5z"/>
	<path id="Layer" class="s2" d="m0 29l11.5-0.3c11.5-0.4 34.5-1 57.5 0.1 23 1.2 46 4.2 69.2 4.5 23.1 0.4 46.5-2 69.6-2.5 23.2-0.5 46.2 0.9 69.2 0.9 23 0 46-1.4 69-1.2 23 0.2 46 1.8 69.2 1.3 23.1-0.5 46.5-3.1 69.6-3.6 23.2-0.5 46.2 1.1 69.2 1.6 23 0.5 46-0.1 69-0.8 23-0.7 46-1.3 69.2-1.5 23.1-0.2 46.5 0.2 69.6 0 23.2-0.2 46.2-0.8 69.2 0 23 0.8 46 3.2 57.5 4.3l11.5 1.2v-33h-11.5c-11.5 0-34.5 0-57.5 0-23 0-46 0-69.2 0-23.1 0-46.5 0-69.6 0-23.2 0-46.2 0-69.2 0q-34.5 0-69 0c-23 0-46 0-69.2 0-23.1 0-46.5 0-69.6 0-23.2 0-46.2 0-69.2 0q-34.5 0-69 0c-23 0-46 0-69.2 0-23.1 0-46.5 0-69.6 0-23.2 0-46.2 0-69.2 0-23 0-46 0-57.5 0h-11.5z"/>
	<path id="Layer" class="s3" d="m0 29l11.5-1.8c11.5-1.9 34.5-5.5 57.5-7.5 23-2 46-2.4 69.2-0.5 23.1 1.8 46.5 5.8 69.6 5.8 23.2 0 46.2-4 69.2-6 23-2 46-2 69-1.2 23 0.9 46 2.5 69.2 3 23.1 0.5 46.5-0.1 69.6-0.8 23.2-0.7 46.2-1.3 69.2-0.8 23 0.5 46 2.1 69 2.1 23 0 46-1.6 69.2-0.8 23.1 0.8 46.5 4.2 69.6 5.8 23.2 1.7 46.2 1.7 69.2 0.9 23-0.9 46-2.5 57.5-3.4l11.5-0.8v-23h-11.5c-11.5 0-34.5 0-57.5 0-23 0-46 0-69.2 0-23.1 0-46.5 0-69.6 0-23.2 0-46.2 0-69.2 0q-34.5 0-69 0c-23 0-46 0-69.2 0-23.1 0-46.5 0-69.6 0-23.2 0-46.2 0-69.2 0q-34.5 0-69 0c-23 0-46 0-69.2 0-23.1 0-46.5 0-69.6 0-23.2 0-46.2 0-69.2 0-23 0-46 0-57.5 0h-11.5z"/>
	<path id="Layer" class="s4" d="m0 14h11.5c11.5 0 34.5 0 57.5-0.5 23-0.5 46-1.5 69.2-1.5 23.1 0 46.5 1 69.6 2.3 23.2 1.4 46.2 3 69.2 2.4 23-0.7 46-3.7 69-4.2 23-0.5 46 1.5 69.2 1.5 23.1 0 46.5-2 69.6-2 23.2 0 46.2 2 69.2 3.3 23 1.4 46 2 69 2.2 23 0.2 46-0.2 69.2-0.2 23.1 0 46.5 0.4 69.6 0.5 23.2 0.2 46.2 0.2 69.2-0.6 23-0.9 46-2.5 57.5-3.4l11.5-0.8v-13h-11.5c-11.5 0-34.5 0-57.5 0-23 0-46 0-69.2 0-23.1 0-46.5 0-69.6 0-23.2 0-46.2 0-69.2 0q-34.5 0-69 0c-23 0-46 0-69.2 0-23.1 0-46.5 0-69.6 0-23.2 0-46.2 0-69.2 0q-34.5 0-69 0c-23 0-46 0-69.2 0-23.1 0-46.5 0-69.6 0-23.2 0-46.2 0-69.2 0-23 0-46 0-57.5 0h-11.5z"/>
	<path id="Layer" class="s5" d="m0 3l11.5 1c11.5 1 34.5 3 57.5 3.5 23 0.5 46-0.5 69.2 0.2 23.1 0.6 46.5 3 69.6 3.3 23.2 0.3 46.2-1.3 69.2-1.8 23-0.5 46 0.1 69 0.3 23 0.2 46-0.2 69.2-1.5 23.1-1.3 46.5-3.7 69.6-4.7 23.2-1 46.2-0.6 69.2 0.7 23 1.3 46 3.7 69 4.7 23 1 46 0.6 69.2 0 23.1-0.7 46.5-1.7 69.6-1 23.2 0.6 46.2 3 69.2 2.5 23-0.5 46-3.9 57.5-5.5l11.5-1.7v-3h-11.5c-11.5 0-34.5 0-57.5 0-23 0-46 0-69.2 0-23.1 0-46.5 0-69.6 0-23.2 0-46.2 0-69.2 0q-34.5 0-69 0c-23 0-46 0-69.2 0-23.1 0-46.5 0-69.6 0-23.2 0-46.2 0-69.2 0q-34.5 0-69 0c-23 0-46 0-69.2 0-23.1 0-46.5 0-69.6 0-23.2 0-46.2 0-69.2 0-23 0-46 0-57.5 0h-11.5z"/>
</svg>