<svg version="1.2" xmlns="http://www.w3.org/2000/svg" viewBox="0 0 960 170" width="960" height="170">
	<title>layer8-svg</title>
	<style>
		.s0 { fill: #202731 } 
		.s1 { fill: #8e7df8 } 
		.s2 { fill: #846af9 } 
		.s3 { fill: #7c55f8 } 
		.s4 { fill: #753df6 } 
		.s5 { fill: #7019f3 } 
	</style>
	<path id="Layer" class="s0" d="m0 0h960v300h-960z"/>
	<path id="Layer" class="s1" d="m0 132l12.3-0.2c12.4-0.1 37-0.5 61.7-1.5 24.7-1 49.3-2.6 74-2 24.7 0.7 49.3 3.7 73.8 5 24.5 1.4 48.9 1 73.4-4.3 24.5-5.3 49.1-15.7 73.8-17.8 24.7-2.2 49.3 3.8 74 9.5 24.7 5.6 49.3 11 74 10 24.7-1 49.3-8.4 74-13 24.7-4.7 49.3-6.7 73.8-6.4 24.5 0.4 48.9 3 73.4 5.5 24.5 2.5 49.1 4.9 73.8 6 24.7 1.2 49.3 1.2 74 2.9 24.7 1.6 49.3 5 61.7 6.6l12.3 1.7v-134h-12.3c-12.4 0-37 0-61.7 0-24.7 0-49.3 0-74 0q-37 0-73.8 0c-24.5 0-48.9 0-73.4 0q-36.8 0-73.8 0c-24.7 0-49.3 0-74 0-24.7 0-49.3 0-74 0-24.7 0-49.3 0-74 0q-37.1 0-73.8 0c-24.5 0-48.9 0-73.4 0q-36.7 0-73.8 0c-24.7 0-49.3 0-74 0-24.7 0-49.3 0-61.7 0h-12.3z"/>
	<path id="Layer" class="s2" d="m0 102l12.3 1.5c12.4 1.5 37 4.5 61.7 6.2 24.7 1.6 49.3 2 74-1.5 24.7-3.5 49.3-10.9 73.8-13.5 24.5-2.7 48.9-0.7 73.4 0.8q36.7 2.3 73.8 3c24.7 0.5 49.3 0.5 74-2.8 24.7-3.4 49.3-10 74-13.4 24.7-3.3 49.3-3.3 74-2.8 24.7 0.5 49.3 1.5 73.8 5.2 24.5 3.6 48.9 10 73.4 14.6 24.5 4.7 49.1 7.7 73.8 10 24.7 2.4 49.3 4 74-0.1 24.7-4.2 49.3-14.2 61.7-19.2l12.3-5v-85h-12.3c-12.4 0-37 0-61.7 0-24.7 0-49.3 0-74 0q-37 0-73.8 0c-24.5 0-48.9 0-73.4 0q-36.8 0-73.8 0c-24.7 0-49.3 0-74 0-24.7 0-49.3 0-74 0-24.7 0-49.3 0-74 0q-37.1 0-73.8 0c-24.5 0-48.9 0-73.4 0q-36.7 0-73.8 0c-24.7 0-49.3 0-74 0-24.7 0-49.3 0-61.7 0h-12.3z"/>
	<path id="Layer" class="s3" d="m0 70l12.3-2.3c12.4-2.4 37-7 61.7-8.2 24.7-1.2 49.3 1.2 74 4.7 24.7 3.5 49.3 8.1 73.8 10.1 24.5 2 48.9 1.4 73.4 0.5 24.5-0.8 49.1-1.8 73.8-2.5 24.7-0.6 49.3-1 74-2.1 24.7-1.2 49.3-3.2 74-6.4 24.7-3.1 49.3-7.5 74-3.1 24.7 4.3 49.3 17.3 73.8 19.1 24.5 1.9 48.9-7.5 73.4-8.8 24.5-1.3 49.1 5.3 73.8 8.7 24.7 3.3 49.3 3.3 74-1.7 24.7-5 49.3-15 61.7-20l12.3-5v-53h-12.3c-12.4 0-37 0-61.7 0-24.7 0-49.3 0-74 0q-37 0-73.8 0c-24.5 0-48.9 0-73.4 0q-36.8 0-73.8 0c-24.7 0-49.3 0-74 0-24.7 0-49.3 0-74 0-24.7 0-49.3 0-74 0q-37.1 0-73.8 0c-24.5 0-48.9 0-73.4 0q-36.7 0-73.8 0c-24.7 0-49.3 0-74 0-24.7 0-49.3 0-61.7 0h-12.3z"/>
	<path id="Layer" class="s4" d="m0 66l12.3-5.2c12.4-5.1 37-15.5 61.7-20.6 24.7-5.2 49.3-5.2 74-5.2 24.7 0 49.3 0 73.8 2.2 24.5 2.1 48.9 6.5 73.4 9.3 24.5 2.8 49.1 4.2 73.8 7.2 24.7 3 49.3 7.6 74 7.3 24.7-0.3 49.3-5.7 74-8.3 24.7-2.7 49.3-2.7 74-1.4 24.7 1.4 49.3 4 73.8 1.5 24.5-2.5 48.9-10.1 73.4-9.3 24.5 0.8 49.1 10.2 73.8 10.7 24.7 0.5 49.3-7.9 74-13.2 24.7-5.3 49.3-7.7 61.7-8.8l12.3-1.2v-31h-12.3c-12.4 0-37 0-61.7 0-24.7 0-49.3 0-74 0q-37 0-73.8 0c-24.5 0-48.9 0-73.4 0q-36.8 0-73.8 0c-24.7 0-49.3 0-74 0-24.7 0-49.3 0-74 0-24.7 0-49.3 0-74 0q-37.1 0-73.8 0c-24.5 0-48.9 0-73.4 0q-36.7 0-73.8 0c-24.7 0-49.3 0-74 0-24.7 0-49.3 0-61.7 0h-12.3z"/>
	<path id="Layer" class="s5" d="m0 26l12.3 1.7c12.4 1.6 37 5 61.7 7.5 24.7 2.5 49.3 4.1 74 2.8 24.7-1.3 49.3-5.7 73.8-7.7 24.5-2 48.9-1.6 73.4-4 24.5-2.3 49.1-7.3 73.8-9.1 24.7-1.9 49.3-0.5 74 0.8 24.7 1.3 49.3 2.7 74 3.5 24.7 0.8 49.3 1.2 74 1.3 24.7 0.2 49.3 0.2 73.8-2 24.5-2.1 48.9-6.5 73.4-3.5 24.5 3 49.1 13.4 73.8 12.9 24.7-0.5 49.3-11.9 74-15.2 24.7-3.3 49.3 1.3 61.7 3.7l12.3 2.3v-21h-12.3c-12.4 0-37 0-61.7 0-24.7 0-49.3 0-74 0q-37 0-73.8 0c-24.5 0-48.9 0-73.4 0q-36.8 0-73.8 0c-24.7 0-49.3 0-74 0-24.7 0-49.3 0-74 0-24.7 0-49.3 0-74 0q-37.1 0-73.8 0c-24.5 0-48.9 0-73.4 0q-36.7 0-73.8 0c-24.7 0-49.3 0-74 0-24.7 0-49.3 0-61.7 0h-12.3z"/>
</svg>