<svg version="1.2" xmlns="http://www.w3.org/2000/svg" viewBox="0 0 900 150" width="900" height="150">
	<title>layer2-svg</title>
	<style>
		.s0 { fill: #202731 } 
		.s1 { fill: #fcaf3c } 
		.s2 { fill: #fba230 } 
		.s3 { fill: #fa9424 } 
		.s4 { fill: #f98619 } 
		.s5 { fill: #f7770f } 
	</style>
	<path id="Layer" class="s0" d="m0-150h900v300h-900z"/>
	<path id="Layer" class="s1" d="m0 42l11.5-0.7c11.5-0.6 34.5-2 57.5-0.8 23 1.2 46 4.8 69.2 2 23.1-2.8 46.5-12.2 69.6-13.3 23.2-1.2 46.2 5.8 69.2 5.1 23-0.6 46-9 69-14 23-5 46-6.6 69.2-8 23.1-1.3 46.5-2.3 69.6-1.3 23.2 1 46.2 4 69.2 7.3 23 3.4 46 7 69 11.2 23 4.2 46 8.8 69.2 12.2 23.1 3.3 46.5 5.3 69.6 1.6 23.2-3.6 46.2-13 69.2-13.3 23-0.3 46 8.3 57.5 12.7l11.5 4.3v104h-11.5c-11.5 0-34.5 0-57.5 0-23 0-46 0-69.2 0-23.1 0-46.5 0-69.6 0-23.2 0-46.2 0-69.2 0q-34.5 0-69 0c-23 0-46 0-69.2 0-23.1 0-46.5 0-69.6 0-23.2 0-46.2 0-69.2 0q-34.5 0-69 0c-23 0-46 0-69.2 0-23.1 0-46.5 0-69.6 0-23.2 0-46.2 0-69.2 0-23 0-46 0-57.5 0h-11.5z"/>
	<path id="Layer" class="s2" d="m0 59l11.5 1.2c11.5 1.1 34.5 3.5 57.5 0.1 23-3.3 46-12.3 69.2-13.6 23.1-1.4 46.5 5 69.6 6.3 23.2 1.3 46.2-2.3 69.2-2.2 23 0.2 46 4.2 69 3.7 23-0.5 46-5.5 69.2-3.8 23.1 1.6 46.5 10 69.6 11.3 23.2 1.3 46.2-4.3 69.2-5.8 23-1.5 46 1.1 69 3.3 23 2.2 46 3.8 69.2 4.2 23.1 0.3 46.5-0.7 69.6-0.4 23.2 0.4 46.2 2 69.2-0.5 23-2.5 46-9.1 57.5-12.5l11.5-3.3v104h-11.5c-11.5 0-34.5 0-57.5 0-23 0-46 0-69.2 0-23.1 0-46.5 0-69.6 0-23.2 0-46.2 0-69.2 0q-34.5 0-69 0c-23 0-46 0-69.2 0-23.1 0-46.5 0-69.6 0-23.2 0-46.2 0-69.2 0q-34.5 0-69 0c-23 0-46 0-69.2 0-23.1 0-46.5 0-69.6 0-23.2 0-46.2 0-69.2 0-23 0-46 0-57.5 0h-11.5z"/>
	<path id="Layer" class="s3" d="m0 60l11.5 5.5c11.5 5.5 34.5 16.5 57.5 22.3 23 5.9 46 6.5 69.2 0.9 23.1-5.7 46.5-17.7 69.6-17.9 23.2-0.1 46.2 11.5 69.2 17.4 23 5.8 46 5.8 69 3.5 23-2.4 46-7 69.2-8.2 23.1-1.2 46.5 1.2 69.6 3 23.2 1.8 46.2 3.2 69.2 1.3 23-1.8 46-6.8 69-6.6 23 0.1 46 5.5 69.2 3.3 23.1-2.2 46.5-11.8 69.6-17 23.2-5.2 46.2-5.8 69.2-3.3 23 2.5 46 8.1 57.5 11l11.5 2.8v73h-11.5c-11.5 0-34.5 0-57.5 0-23 0-46 0-69.2 0-23.1 0-46.5 0-69.6 0-23.2 0-46.2 0-69.2 0q-34.5 0-69 0c-23 0-46 0-69.2 0-23.1 0-46.5 0-69.6 0-23.2 0-46.2 0-69.2 0q-34.5 0-69 0c-23 0-46 0-69.2 0-23.1 0-46.5 0-69.6 0-23.2 0-46.2 0-69.2 0-23 0-46 0-57.5 0h-11.5z"/>
	<path id="Layer" class="s4" d="m0 103l11.5 0.3c11.5 0.4 34.5 1 57.5 2.7 23 1.7 46 4.3 69.2 4.3 23.1 0 46.5-2.6 69.6-6.8 23.2-4.2 46.2-9.8 69.2-7.8 23 2 46 11.6 69 13.3 23 1.7 46-4.7 69.2-4.7 23.1 0 46.5 6.4 69.6 6.2 23.2-0.2 46.2-6.8 69.2-11 23-4.2 46-5.8 69-6 23-0.2 46 1.2 69.2 1.2 23.1 0 46.5-1.4 69.6-1.9 23.2-0.5 46.2-0.1 69.2 2.5 23 2.7 46 7.7 57.5 10.2l11.5 2.5v43h-11.5c-11.5 0-34.5 0-57.5 0-23 0-46 0-69.2 0-23.1 0-46.5 0-69.6 0-23.2 0-46.2 0-69.2 0q-34.5 0-69 0c-23 0-46 0-69.2 0-23.1 0-46.5 0-69.6 0-23.2 0-46.2 0-69.2 0q-34.5 0-69 0c-23 0-46 0-69.2 0-23.1 0-46.5 0-69.6 0-23.2 0-46.2 0-69.2 0-23 0-46 0-57.5 0h-11.5z"/>
	<path id="Layer" class="s5" d="m0 137l11.5-3c11.5-3 34.5-9 57.5-10.7 23-1.6 46 1 69.2-0.8 23.1-1.8 46.5-8.2 69.6-9 23.2-0.8 46.2 3.8 69.2 5.3 23 1.5 46-0.1 69-0.5 23-0.3 46 0.7 69.2 4.7 23.1 4 46.5 11 69.6 14 23.2 3 46.2 2 69.2-2.2 23-4.1 46-11.5 69-14.8 23-3.3 46-2.7 69.2-0.7 23.1 2 46.5 5.4 69.6 3.5 23.2-1.8 46.2-8.8 69.2-7.3 23 1.5 46 11.5 57.5 16.5l11.5 5v14h-11.5c-11.5 0-34.5 0-57.5 0-23 0-46 0-69.2 0-23.1 0-46.5 0-69.6 0-23.2 0-46.2 0-69.2 0q-34.5 0-69 0c-23 0-46 0-69.2 0-23.1 0-46.5 0-69.6 0-23.2 0-46.2 0-69.2 0q-34.5 0-69 0c-23 0-46 0-69.2 0-23.1 0-46.5 0-69.6 0-23.2 0-46.2 0-69.2 0-23 0-46 0-57.5 0h-11.5z"/>
</svg>