<svg id="visual" viewBox="0 0 900 300" width="900" height="300" xmlns="http://www.w3.org/2000/svg" xmlns:xlink="http://www.w3.org/1999/xlink" version="1.1"><rect x="0" y="0" width="900" height="300" fill="#202731"></rect><path d="M0 192L11.5 191.3C23 190.7 46 189.3 69 190.5C92 191.7 115 195.3 138.2 192.5C161.3 189.7 184.7 180.3 207.8 179.2C231 178 254 185 277 184.3C300 183.7 323 175.3 346 170.3C369 165.3 392 163.7 415.2 162.3C438.3 161 461.7 160 484.8 161C508 162 531 165 554 168.3C577 171.7 600 175.3 623 179.5C646 183.7 669 188.3 692.2 191.7C715.3 195 738.7 197 761.8 193.3C785 189.7 808 180.3 831 180C854 179.7 877 188.3 888.5 192.7L900 197L900 301L888.5 301C877 301 854 301 831 301C808 301 785 301 761.8 301C738.7 301 715.3 301 692.2 301C669 301 646 301 623 301C600 301 577 301 554 301C531 301 508 301 484.8 301C461.7 301 438.3 301 415.2 301C392 301 369 301 346 301C323 301 300 301 277 301C254 301 231 301 207.8 301C184.7 301 161.3 301 138.2 301C115 301 92 301 69 301C46 301 23 301 11.5 301L0 301Z" fill="#fcaf3c"></path><path d="M0 209L11.5 210.2C23 211.3 46 213.7 69 210.3C92 207 115 198 138.2 196.7C161.3 195.3 184.7 201.7 207.8 203C231 204.3 254 200.7 277 200.8C300 201 323 205 346 204.5C369 204 392 199 415.2 200.7C438.3 202.3 461.7 210.7 484.8 212C508 213.3 531 207.7 554 206.2C577 204.7 600 207.3 623 209.5C646 211.7 669 213.3 692.2 213.7C715.3 214 738.7 213 761.8 213.3C785 213.7 808 215.3 831 212.8C854 210.3 877 203.7 888.5 200.3L900 197L900 301L888.5 301C877 301 854 301 831 301C808 301 785 301 761.8 301C738.7 301 715.3 301 692.2 301C669 301 646 301 623 301C600 301 577 301 554 301C531 301 508 301 484.8 301C461.7 301 438.3 301 415.2 301C392 301 369 301 346 301C323 301 300 301 277 301C254 301 231 301 207.8 301C184.7 301 161.3 301 138.2 301C115 301 92 301 69 301C46 301 23 301 11.5 301L0 301Z" fill="#fba230"></path><path d="M0 210L11.5 215.5C23 221 46 232 69 237.8C92 243.7 115 244.3 138.2 238.7C161.3 233 184.7 221 207.8 220.8C231 220.7 254 232.3 277 238.2C300 244 323 244 346 241.7C369 239.3 392 234.7 415.2 233.5C438.3 232.3 461.7 234.7 484.8 236.5C508 238.3 531 239.7 554 237.8C577 236 600 231 623 231.2C646 231.3 669 236.7 692.2 234.5C715.3 232.3 738.7 222.7 761.8 217.5C785 212.3 808 211.7 831 214.2C854 216.7 877 222.3 888.5 225.2L900 228L900 301L888.5 301C877 301 854 301 831 301C808 301 785 301 761.8 301C738.7 301 715.3 301 692.2 301C669 301 646 301 623 301C600 301 577 301 554 301C531 301 508 301 484.8 301C461.7 301 438.3 301 415.2 301C392 301 369 301 346 301C323 301 300 301 277 301C254 301 231 301 207.8 301C184.7 301 161.3 301 138.2 301C115 301 92 301 69 301C46 301 23 301 11.5 301L0 301Z" fill="#fa9424"></path><path d="M0 253L11.5 253.3C23 253.7 46 254.3 69 256C92 257.7 115 260.3 138.2 260.3C161.3 260.3 184.7 257.7 207.8 253.5C231 249.3 254 243.7 277 245.7C300 247.7 323 257.3 346 259C369 260.7 392 254.3 415.2 254.3C438.3 254.3 461.7 260.7 484.8 260.5C508 260.3 531 253.7 554 249.5C577 245.3 600 243.7 623 243.5C646 243.3 669 244.7 692.2 244.7C715.3 244.7 738.7 243.3 761.8 242.8C785 242.3 808 242.7 831 245.3C854 248 877 253 888.5 255.5L900 258L900 301L888.5 301C877 301 854 301 831 301C808 301 785 301 761.8 301C738.7 301 715.3 301 692.2 301C669 301 646 301 623 301C600 301 577 301 554 301C531 301 508 301 484.8 301C461.7 301 438.3 301 415.2 301C392 301 369 301 346 301C323 301 300 301 277 301C254 301 231 301 207.8 301C184.7 301 161.3 301 138.2 301C115 301 92 301 69 301C46 301 23 301 11.5 301L0 301Z" fill="#f98619"></path><path d="M0 287L11.5 284C23 281 46 275 69 273.3C92 271.7 115 274.3 138.2 272.5C161.3 270.7 184.7 264.3 207.8 263.5C231 262.7 254 267.3 277 268.8C300 270.3 323 268.7 346 268.3C369 268 392 269 415.2 273C438.3 277 461.7 284 484.8 287C508 290 531 289 554 284.8C577 280.7 600 273.3 623 270C646 266.7 669 267.3 692.2 269.3C715.3 271.3 738.7 274.7 761.8 272.8C785 271 808 264 831 265.5C854 267 877 277 888.5 282L900 287L900 301L888.5 301C877 301 854 301 831 301C808 301 785 301 761.8 301C738.7 301 715.3 301 692.2 301C669 301 646 301 623 301C600 301 577 301 554 301C531 301 508 301 484.8 301C461.7 301 438.3 301 415.2 301C392 301 369 301 346 301C323 301 300 301 277 301C254 301 231 301 207.8 301C184.7 301 161.3 301 138.2 301C115 301 92 301 69 301C46 301 23 301 11.5 301L0 301Z" fill="#f7770f"></path></svg>